<svg width="21" height="20" viewBox="0 0 21 20" fill="none" xmlns="http://www.w3.org/2000/svg">
<g clip-path="url(#clip0)">
<path d="M18.1884 7.5H16.3659V9.31417H14.5518V11.1367H16.3659V12.9508H18.1884V11.1367H20.0026V9.31417H18.1884V7.5Z" fill="#2A263D"/>
<path d="M6.25293 16.25C9.8596 16.25 12.2554 13.7183 12.2554 10.145C12.2554 9.73583 12.2129 9.42 12.1538 9.105H6.25376V11.2533H9.80126C9.65626 12.1658 8.7271 13.9475 6.25376 13.9475C4.12293 13.9475 2.38293 12.1825 2.38293 10C2.38293 7.8175 4.1221 6.05167 6.25376 6.05167C7.47293 6.05167 8.28293 6.57167 8.74376 7.015L10.4404 5.38667C9.34793 4.36417 7.94126 3.75 6.25293 3.75C2.7996 3.75 0.00292969 6.54667 0.00292969 10C0.00292969 13.4533 2.7996 16.25 6.25293 16.25Z" fill="#2A263D"/>
</g>
<defs>
<clipPath id="clip0">
<rect width="20" height="20" fill="white" transform="translate(0.00292969)"/>
</clipPath>
</defs>
</svg>
