<svg width="21" height="20" viewBox="0 0 21 20" fill="none" xmlns="http://www.w3.org/2000/svg">
<g clip-path="url(#clip0)">
<path d="M14.5891 0H5.41674C2.43151 0 0.00292969 2.42858 0.00292969 5.41381V14.5863C0.00292969 17.5714 2.43151 20 5.41674 20H14.5892C17.5743 20 20.0029 17.5714 20.0029 14.5863V5.41381C20.0029 2.42858 17.5743 0 14.5891 0V0ZM10.0029 15.4686C6.98747 15.4686 4.53432 13.0154 4.53432 9.99998C4.53432 6.98454 6.98747 4.53139 10.0029 4.53139C13.0183 4.53139 15.4715 6.98454 15.4715 9.99998C15.4715 13.0154 13.0183 15.4686 10.0029 15.4686ZM15.6023 5.82106C14.7112 5.82106 13.9864 5.09627 13.9864 4.20516C13.9864 3.31405 14.7112 2.58911 15.6023 2.58911C16.4934 2.58911 17.2183 3.31405 17.2183 4.20516C17.2183 5.09627 16.4934 5.82106 15.6023 5.82106Z" fill="#2A263D"/>
<path d="M10.0031 5.70386C7.63437 5.70386 5.70703 7.63104 5.70703 9.99996C5.70703 12.3687 7.63437 14.2961 10.0031 14.2961C12.3721 14.2961 14.2992 12.3687 14.2992 9.99996C14.2992 7.63104 12.3721 5.70386 10.0031 5.70386Z" fill="#2A263D"/>
<path d="M15.6026 3.76172C15.3582 3.76172 15.1592 3.96069 15.1592 4.20514C15.1592 4.44958 15.3582 4.64856 15.6026 4.64856C15.8472 4.64856 16.0462 4.44974 16.0462 4.20514C16.0462 3.96054 15.8472 3.76172 15.6026 3.76172Z" fill="#2A263D"/>
</g>
<defs>
<clipPath id="clip0">
<rect width="20" height="20" fill="white" transform="translate(0.00292969)"/>
</clipPath>
</defs>
</svg>
