<svg width="21" height="20" viewBox="0 0 21 20" fill="none" xmlns="http://www.w3.org/2000/svg">
<g clip-path="url(#clip0)">
<path d="M4.54684 6.65369H0.25V19.5572H4.54684V6.65369Z" fill="#2A263D"/>
<path d="M18.649 7.83232C17.7464 6.84704 16.5526 6.35431 15.0683 6.35431C14.5215 6.35431 14.0244 6.42158 13.5772 6.55621C13.1303 6.69075 12.7527 6.87951 12.4445 7.1226C12.1364 7.36568 11.891 7.59134 11.7089 7.79958C11.5357 7.99737 11.3663 8.22778 11.201 8.48842V6.65358H6.91699L6.93013 7.27866C6.93893 7.69546 6.94326 8.9801 6.94326 11.1328C6.94326 13.2856 6.9346 16.0937 6.91717 19.5573H11.201V12.3566C11.201 11.914 11.2485 11.5625 11.3442 11.3019C11.5266 10.8589 11.8019 10.4881 12.1711 10.1888C12.5402 9.88903 12.9979 9.73931 13.545 9.73931C14.2913 9.73931 14.8405 9.99753 15.1921 10.514C15.5436 11.0305 15.7194 11.7445 15.7194 12.656V19.5569H20.0032V12.1615C20.0029 10.2603 19.5519 8.81728 18.649 7.83232Z" fill="#2A263D"/>
<path d="M2.42476 0.442688C1.70436 0.442688 1.12065 0.653344 0.673479 1.07425C0.226355 1.49524 0.00292969 2.02673 0.00292969 2.66924C0.00292969 3.30276 0.219924 3.83243 0.653959 4.25766C1.08786 4.68294 1.66086 4.8957 2.37263 4.8957H2.39867C3.12792 4.8957 3.7161 4.68313 4.16309 4.25766C4.61008 3.83243 4.82922 3.30294 4.8206 2.66924C4.81193 2.02678 4.59042 1.49524 4.15652 1.07425C3.72267 0.653161 3.1452 0.442688 2.42476 0.442688Z" fill="#2A263D"/>
</g>
<defs>
<clipPath id="clip0">
<rect width="20" height="20" fill="white" transform="translate(0.00292969)"/>
</clipPath>
</defs>
</svg>
