<svg xmlns="http://www.w3.org/2000/svg" viewBox="0 0 245 56" width="245" height="56">
	<style>
		tspan { white-space:pre }
		.shp0 { fill: #ffffff } 
	</style>
	<g id="HEADER">
		<g id="Nav">
			<g id="Logo">
				<path id="Logo" class="shp0" d="M24.92 49.4L53.54 49.15L32.98 13.96L16.19 43.89L11.67 43.93L30.98 10.36L27.75 4.83L2 49.6L19.44 49.45L33.08 25.14L43.89 43.64L27.24 43.79L24.92 49.4ZM69.68 54.99L38.37 1.22L38.74 1.01L70.05 54.77L69.68 54.99ZM72.48 21.81L72.48 21.76C72.48 16.54 76.58 12.3 82.04 12.3C87.5 12.3 91.54 16.48 91.54 21.71L91.54 21.76C91.54 26.98 87.44 31.22 81.99 31.22C76.53 31.22 72.48 27.03 72.48 21.81ZM86.54 21.81L86.54 21.76C86.54 19.13 84.69 16.85 81.99 16.85C79.31 16.85 77.51 19.08 77.51 21.71L77.51 21.76C77.51 24.38 79.36 26.67 82.04 26.67C84.74 26.67 86.54 24.44 86.54 21.81ZM96.62 12.66L101.2 12.66L108.48 22.28L108.48 12.66L113.33 12.66L113.33 30.85L109.03 30.85L101.48 20.88L101.48 30.85L96.62 30.85L96.62 12.66ZM123.32 17.08L118.01 17.08L118.01 12.66L133.53 12.66L133.53 17.08L128.22 17.08L128.22 30.85L123.32 30.85L123.32 17.08ZM138.31 12.66L143.23 12.66L143.23 30.85L138.31 30.85L138.31 12.66ZM148.39 21.81L148.39 21.76C148.39 16.46 152.36 12.3 157.72 12.3C161.33 12.3 163.65 13.86 165.22 16.09L161.53 19.03C160.52 17.73 159.36 16.9 157.67 16.9C155.19 16.9 153.45 19.06 153.45 21.71L153.45 21.76C153.45 24.49 155.19 26.62 157.67 26.62C159.51 26.62 160.6 25.74 161.66 24.41L165.35 27.11C163.68 29.48 161.43 31.22 157.51 31.22C152.46 31.22 148.39 27.24 148.39 21.81ZM169.98 12.66L184.21 12.66L184.21 16.95L174.83 16.95L174.83 19.71L183.32 19.71L183.32 23.68L174.83 23.68L174.83 26.57L184.33 26.57L184.33 30.85L169.98 30.85L169.98 12.66ZM189.37 12.66L194.27 12.66L194.27 26.44L202.83 26.44L202.83 30.85L189.37 30.85L189.37 12.66ZM207.46 12.66L212.37 12.66L212.37 26.44L220.93 26.44L220.93 30.85L207.46 30.85L207.46 12.66ZM223.94 21.81L223.94 21.76C223.94 16.54 228.04 12.3 233.5 12.3C238.96 12.3 243 16.48 243 21.71L243 21.76C243 26.98 238.91 31.22 233.45 31.22C227.99 31.22 223.94 27.03 223.94 21.81ZM238 21.81L238 21.76C238 19.13 236.15 16.85 233.45 16.85C230.77 16.85 228.97 19.08 228.97 21.71L228.97 21.76C228.97 24.38 230.82 26.67 233.5 26.67C236.2 26.67 238 24.44 238 21.81ZM53.42 26.48L53.42 20.46L57.92 27.53L58.02 27.53L62.55 20.41L62.55 30.85L67.42 30.85L67.42 12.66L62.24 12.66L58.02 19.71L53.8 12.66L48.62 12.66L48.62 18.24L53.42 26.48ZM73.49 40.71L74.17 40.71L74.17 46.77L73.49 46.77L73.49 40.71ZM79.37 40.71L80.01 40.71L83.79 45.56L83.79 40.71L84.45 40.71L84.45 46.77L83.91 46.77L80.03 41.8L80.03 46.77L79.37 46.77L79.37 40.71ZM91.18 41.34L89.16 41.34L89.16 40.71L93.88 40.71L93.88 41.34L91.87 41.34L91.87 46.77L91.18 46.77L91.18 41.34ZM98.59 40.71L102.94 40.71L102.94 41.33L99.27 41.33L99.27 43.4L102.55 43.4L102.55 44.02L99.27 44.02L99.27 46.14L102.98 46.14L102.98 46.77L98.59 46.77L98.59 40.71ZM107.78 40.71L110.37 40.71C111.11 40.71 111.7 40.93 112.08 41.31C112.37 41.61 112.54 42.03 112.54 42.51L112.54 42.52C112.54 43.53 111.85 44.12 110.91 44.29L112.76 46.77L111.92 46.77L110.18 44.41L108.46 44.41L108.46 46.77L107.78 46.77L107.78 40.71ZM110.31 43.8C111.21 43.8 111.85 43.33 111.85 42.55L111.85 42.53C111.85 41.79 111.29 41.34 110.32 41.34L108.46 41.34L108.46 43.8L110.31 43.8ZM117.43 40.71L118.07 40.71L121.85 45.56L121.85 40.71L122.51 40.71L122.51 46.77L121.97 46.77L118.09 41.8L118.09 46.77L117.43 46.77L117.43 40.71ZM129.88 40.66L130.51 40.66L133.25 46.77L132.52 46.77L131.82 45.17L128.55 45.17L127.83 46.77L127.14 46.77L129.88 40.66ZM131.55 44.55L130.19 41.46L128.81 44.55L131.55 44.55ZM138.69 41.34L136.67 41.34L136.67 40.71L141.4 40.71L141.4 41.34L139.38 41.34L139.38 46.77L138.69 46.77L138.69 41.34ZM146.17 40.71L146.84 40.71L146.84 46.77L146.17 46.77L146.17 40.71ZM151.78 43.75L151.78 43.74C151.78 42.07 153.02 40.6 154.85 40.6C156.68 40.6 157.91 42.05 157.91 43.72L157.91 43.74C157.91 45.41 156.66 46.87 154.83 46.87C153 46.87 151.78 45.43 151.78 43.75ZM157.2 43.75L157.2 43.74C157.2 42.36 156.21 41.23 154.83 41.23C153.46 41.23 152.48 42.34 152.48 43.72L152.48 43.74C152.48 45.11 153.48 46.24 154.85 46.24C156.22 46.24 157.2 45.13 157.2 43.75ZM162.78 40.71L163.41 40.71L167.2 45.56L167.2 40.71L167.86 40.71L167.86 46.77L167.32 46.77L163.44 41.8L163.44 46.77L162.78 46.77L162.78 40.71ZM175.23 40.66L175.86 40.66L178.6 46.77L177.87 46.77L177.17 45.17L173.9 45.17L173.18 46.77L172.49 46.77L175.23 40.66ZM176.9 44.55L175.53 41.46L174.16 44.55L176.9 44.55ZM183.22 40.71L183.9 40.71L183.9 46.13L187.29 46.13L187.29 46.77L183.22 46.77L183.22 40.71ZM197.72 43.75L197.72 43.74C197.72 42.07 198.94 40.6 200.74 40.6C201.75 40.6 202.38 40.9 202.98 41.41L202.54 41.93C202.08 41.52 201.56 41.23 200.71 41.23C199.38 41.23 198.43 42.37 198.43 43.72L198.43 43.74C198.43 45.18 199.35 46.26 200.81 46.26C201.49 46.26 202.13 45.99 202.54 45.65L202.54 44.14L200.71 44.14L200.71 43.53L203.19 43.53L203.19 45.94C202.64 46.45 201.79 46.87 200.78 46.87C198.89 46.87 197.72 45.49 197.72 43.75ZM208.16 40.71L210.75 40.71C211.48 40.71 212.08 40.93 212.45 41.31C212.75 41.61 212.92 42.03 212.92 42.51L212.92 42.52C212.92 43.53 212.23 44.12 211.29 44.29L213.13 46.77L212.3 46.77L210.56 44.41L208.84 44.41L208.84 46.77L208.16 46.77L208.16 40.71ZM210.69 43.8C211.59 43.8 212.23 43.33 212.23 42.55L212.23 42.53C212.23 41.79 211.66 41.34 210.69 41.34L208.84 41.34L208.84 43.8L210.69 43.8ZM217.54 43.75L217.54 43.74C217.54 42.07 218.79 40.6 220.62 40.6C222.44 40.6 223.67 42.05 223.67 43.72L223.67 43.74C223.67 45.41 222.43 46.87 220.6 46.87C218.77 46.87 217.54 45.43 217.54 43.75ZM222.97 43.75L222.97 43.74C222.97 42.36 221.97 41.23 220.6 41.23C219.22 41.23 218.25 42.34 218.25 43.72L218.25 43.74C218.25 45.11 219.24 46.24 220.62 46.24C221.99 46.24 222.97 45.13 222.97 43.75ZM228.45 44.23L228.45 40.71L229.13 40.71L229.13 44.19C229.13 45.49 229.82 46.23 230.97 46.23C232.07 46.23 232.78 45.55 232.78 44.23L232.78 40.71L233.46 40.71L233.46 44.18C233.46 45.94 232.45 46.86 230.95 46.86C229.46 46.86 228.45 45.94 228.45 44.23ZM238.5 40.71L240.75 40.71C242.11 40.71 243 41.43 243 42.63L243 42.65C243 43.95 241.92 44.63 240.64 44.63L239.18 44.63L239.18 46.77L238.5 46.77L238.5 40.71ZM240.66 44C241.66 44 242.31 43.47 242.31 42.67L242.31 42.65C242.31 41.79 241.67 41.34 240.7 41.34L239.18 41.34L239.18 44L240.66 44Z" />
			</g>
		</g>
	</g>
</svg>