<svg width="21" height="20" viewBox="0 0 21 20" fill="none" xmlns="http://www.w3.org/2000/svg">
<g clip-path="url(#clip0)">
<path d="M20.0029 3.79875C19.2592 4.125 18.4667 4.34125 17.6404 4.44625C18.4904 3.93875 19.1392 3.14125 19.4442 2.18C18.6517 2.6525 17.7767 2.98625 16.8442 3.1725C16.0917 2.37125 15.0192 1.875 13.8492 1.875C11.5792 1.875 9.75168 3.7175 9.75168 5.97625C9.75168 6.30125 9.77918 6.61375 9.84668 6.91125C6.43793 6.745 3.42168 5.11125 1.39543 2.6225C1.04168 3.23625 0.83418 3.93875 0.83418 4.695C0.83418 6.115 1.56543 7.37375 2.65543 8.1025C1.99668 8.09 1.35043 7.89875 0.80293 7.5975C0.80293 7.61 0.80293 7.62625 0.80293 7.6425C0.80293 9.635 2.22418 11.29 4.08793 11.6712C3.75418 11.7625 3.39043 11.8062 3.01293 11.8062C2.75043 11.8062 2.48543 11.7913 2.23668 11.7362C2.76793 13.36 4.27543 14.5538 6.06793 14.5925C4.67293 15.6838 2.90168 16.3412 0.98418 16.3412C0.64793 16.3412 0.32543 16.3263 0.00292969 16.285C1.81918 17.4563 3.97168 18.125 6.29293 18.125C13.8379 18.125 17.9629 11.875 17.9629 6.4575C17.9629 6.27625 17.9567 6.10125 17.9479 5.9275C18.7617 5.35 19.4454 4.62875 20.0029 3.79875Z" fill="#2A263D"/>
</g>
<defs>
<clipPath id="clip0">
<rect width="20" height="20" fill="white" transform="translate(0.00292969)"/>
</clipPath>
</defs>
</svg>
